<svg width="146" height="35" viewBox="0 0 146 35" fill="none" xmlns="http://www.w3.org/2000/svg">
<path d="M0.988 27V1.8H5.812L16.54 19.584H13.984L24.532 1.8H29.32L29.392 27H23.92L23.884 10.188H24.892L16.468 24.336H13.84L5.236 10.188H6.46V27H0.988ZM37.4228 34.272C36.4148 34.272 35.4188 34.116 34.4348 33.804C33.4508 33.492 32.6468 33.06 32.0228 32.508L34.0748 28.512C34.5068 28.896 34.9988 29.196 35.5508 29.412C36.1268 29.628 36.6908 29.736 37.2428 29.736C38.0348 29.736 38.6588 29.544 39.1148 29.16C39.5948 28.8 40.0268 28.188 40.4108 27.324L41.4188 24.948L41.8508 24.336L48.7988 7.632H54.1988L45.4508 28.188C44.8268 29.748 44.1068 30.972 43.2908 31.86C42.4988 32.748 41.6108 33.372 40.6268 33.732C39.6668 34.092 38.5988 34.272 37.4228 34.272ZM40.7348 27.756L32.0948 7.632H37.8908L44.5868 23.832L40.7348 27.756ZM78.1338 27.288C76.4298 27.288 74.9658 26.928 73.7418 26.208C72.5178 25.488 71.5818 24.396 70.9338 22.932C70.2858 21.444 69.9618 19.572 69.9618 17.316C69.9618 15.036 70.2978 13.164 70.9698 11.7C71.6658 10.236 72.6258 9.144 73.8498 8.424C75.0738 7.704 76.5018 7.344 78.1338 7.344C79.9578 7.344 81.5898 7.752 83.0298 8.568C84.4938 9.384 85.6458 10.536 86.4858 12.024C87.3498 13.512 87.7818 15.276 87.7818 17.316C87.7818 19.332 87.3498 21.084 86.4858 22.572C85.6458 24.06 84.4938 25.224 83.0298 26.064C81.5898 26.88 79.9578 27.288 78.1338 27.288ZM66.6858 27V0.287998H72.3018V11.556L71.9418 17.28L72.0498 23.04V27H66.6858ZM77.1618 22.68C78.0978 22.68 78.9258 22.464 79.6458 22.032C80.3898 21.6 80.9778 20.988 81.4098 20.196C81.8658 19.38 82.0938 18.42 82.0938 17.316C82.0938 16.188 81.8658 15.228 81.4098 14.436C80.9778 13.644 80.3898 13.032 79.6458 12.6C78.9258 12.168 78.0978 11.952 77.1618 11.952C76.2258 11.952 75.3858 12.168 74.6418 12.6C73.8978 13.032 73.3098 13.644 72.8778 14.436C72.4458 15.228 72.2298 16.188 72.2298 17.316C72.2298 18.42 72.4458 19.38 72.8778 20.196C73.3098 20.988 73.8978 21.6 74.6418 22.032C75.3858 22.464 76.2258 22.68 77.1618 22.68ZM91.5412 27V0.287998H97.1572V27H91.5412ZM111.585 27.288C109.521 27.288 107.685 26.856 106.077 25.992C104.493 25.128 103.233 23.952 102.297 22.464C101.385 20.952 100.929 19.236 100.929 17.316C100.929 15.372 101.385 13.656 102.297 12.168C103.233 10.656 104.493 9.48 106.077 8.64C107.685 7.776 109.521 7.344 111.585 7.344C113.625 7.344 115.449 7.776 117.057 8.64C118.665 9.48 119.925 10.644 120.837 12.132C121.749 13.62 122.205 15.348 122.205 17.316C122.205 19.236 121.749 20.952 120.837 22.464C119.925 23.952 118.665 25.128 117.057 25.992C115.449 26.856 113.625 27.288 111.585 27.288ZM111.585 22.68C112.521 22.68 113.361 22.464 114.105 22.032C114.849 21.6 115.437 20.988 115.869 20.196C116.301 19.38 116.517 18.42 116.517 17.316C116.517 16.188 116.301 15.228 115.869 14.436C115.437 13.644 114.849 13.032 114.105 12.6C113.361 12.168 112.521 11.952 111.585 11.952C110.649 11.952 109.809 12.168 109.065 12.6C108.321 13.032 107.721 13.644 107.265 14.436C106.833 15.228 106.617 16.188 106.617 17.316C106.617 18.42 106.833 19.38 107.265 20.196C107.721 20.988 108.321 21.6 109.065 22.032C109.809 22.464 110.649 22.68 111.585 22.68ZM135.067 34.272C133.243 34.272 131.479 34.044 129.775 33.588C128.095 33.156 126.691 32.496 125.563 31.608L127.795 27.576C128.611 28.248 129.643 28.776 130.891 29.16C132.163 29.568 133.411 29.772 134.635 29.772C136.627 29.772 138.067 29.328 138.955 28.44C139.867 27.552 140.323 26.232 140.323 24.48V21.564L140.683 16.704L140.611 11.808V7.632H145.939V23.76C145.939 27.36 145.003 30.012 143.131 31.716C141.259 33.42 138.571 34.272 135.067 34.272ZM134.203 26.064C132.403 26.064 130.771 25.68 129.307 24.912C127.867 24.12 126.703 23.028 125.815 21.636C124.951 20.22 124.519 18.576 124.519 16.704C124.519 14.808 124.951 13.164 125.815 11.772C126.703 10.356 127.867 9.264 129.307 8.496C130.771 7.728 132.403 7.344 134.203 7.344C135.835 7.344 137.275 7.68 138.523 8.352C139.771 9 140.743 10.02 141.439 11.412C142.135 12.78 142.483 14.544 142.483 16.704C142.483 18.84 142.135 20.604 141.439 21.996C140.743 23.364 139.771 24.384 138.523 25.056C137.275 25.728 135.835 26.064 134.203 26.064ZM135.319 21.456C136.303 21.456 137.179 21.264 137.947 20.88C138.715 20.472 139.315 19.908 139.747 19.188C140.179 18.468 140.395 17.64 140.395 16.704C140.395 15.744 140.179 14.916 139.747 14.22C139.315 13.5 138.715 12.948 137.947 12.564C137.179 12.156 136.303 11.952 135.319 11.952C134.335 11.952 133.459 12.156 132.691 12.564C131.923 12.948 131.311 13.5 130.855 14.22C130.423 14.916 130.207 15.744 130.207 16.704C130.207 17.64 130.423 18.468 130.855 19.188C131.311 19.908 131.923 20.472 132.691 20.88C133.459 21.264 134.335 21.456 135.319 21.456Z" fill="#6370E1"/>
</svg>
